<svg width="1504" height="641" viewBox="0 0 1504 641" fill="none" xmlns="http://www.w3.org/2000/svg">
<path d="M0 134C0 70.8318 0 39.2477 19.6238 19.6238C39.2477 0 70.8318 0 134 0H1370C1433.17 0 1464.75 0 1484.38 19.6238C1504 39.2477 1504 70.8318 1504 134V507C1504 570.168 1504 601.752 1484.38 621.376C1464.75 641 1433.17 641 1370 641H134C70.8318 641 39.2477 641 19.6238 621.376C0 601.752 0 570.168 0 507V134Z" fill="url(#paint0_linear_741_648)"/>
<mask id="mask0_741_648" style="mask-type:alpha" maskUnits="userSpaceOnUse" x="0" y="0" width="1504" height="641">
<path d="M0 134C0 70.8318 0 39.2477 19.6238 19.6238C39.2477 0 70.8318 0 134 0H1370C1433.17 0 1464.75 0 1484.38 19.6238C1504 39.2477 1504 70.8318 1504 134V507C1504 570.168 1504 601.752 1484.38 621.376C1464.75 641 1433.17 641 1370 641H134C70.8318 641 39.2477 641 19.6238 621.376C0 601.752 0 570.168 0 507V134Z" fill="#4E91F7"/>
</mask>
<g mask="url(#mask0_741_648)">
<path d="M81 196.67C81 206.594 72.7173 214.638 62.5 214.638C52.2827 214.638 44 206.594 44 196.67C44 186.747 52.2827 178.703 62.5 178.703C72.7173 178.703 81 186.747 81 196.67Z" fill="#5DB9F2"/>
<path d="M849 -6.17582C849 19.8389 827.286 40.928 800.5 40.928C773.714 40.928 752 19.8389 752 -6.17582C752 -32.1905 773.714 -53.2796 800.5 -53.2796C827.286 -53.2796 849 -32.1905 849 -6.17582Z" fill="#5DB9F2"/>
<path d="M74 641C74 660.846 57.4345 676.935 37 676.935C16.5655 676.935 0 660.846 0 641C0 621.154 16.5655 605.065 37 605.065C57.4345 605.065 74 621.154 74 641Z" fill="#5DB9F2"/>
<path d="M267 486.577C267 506.424 250.435 522.512 230 522.512C209.565 522.512 193 506.424 193 486.577C193 466.731 209.565 450.642 230 450.642C250.435 450.642 267 466.731 267 486.577Z" fill="#5DB9F2"/>
<path d="M797 161.297C797 171.22 788.717 179.264 778.5 179.264C768.283 179.264 760 171.22 760 161.297C760 151.374 768.283 143.33 778.5 143.33C788.717 143.33 797 151.374 797 161.297Z" fill="#5DB9F2"/>
<path d="M1340 185.016C1340 200.303 1327.24 212.695 1311.5 212.695C1295.76 212.695 1283 200.303 1283 185.016C1283 169.729 1295.76 157.336 1311.5 157.336C1327.24 157.336 1340 169.729 1340 185.016Z" fill="#5DB9F2"/>
<path fill-rule="evenodd" clip-rule="evenodd" d="M1389.57 498.704C1432.74 485.749 1484.16 486.602 1526.86 500.344C1572.3 514.966 1615.17 541.312 1629.37 575.872C1643.26 609.662 1613.8 643.515 1599.55 677.225C1587.53 705.672 1581.41 736.643 1552.5 757.741C1524.37 778.264 1483.67 785.895 1444.29 790.505C1408.4 794.707 1371.48 793.069 1337.96 782.858C1306.58 773.301 1286.06 753.03 1262.58 735.156C1237.86 716.33 1204.77 700.785 1196.86 675.424C1188.77 649.513 1198.25 620.482 1220.15 599.188C1240.73 579.179 1283.32 581.241 1309.96 565.441C1342 546.435 1351.33 510.183 1389.57 498.704Z" fill="#5DB9F2"/>
<path fill-rule="evenodd" clip-rule="evenodd" d="M35.7481 103.153C-7.28515 107.521 -53.2055 97.5657 -87.0697 77.1649C-123.105 55.456 -152.99 23.2915 -154.423 -11.4117C-155.824 -45.3412 -118.259 -71.6074 -94.4045 -100.45C-74.2747 -124.789 -58.6278 -152.531 -25.7267 -167.019C6.27612 -181.112 45.345 -180.964 82.2442 -178.239C115.869 -175.755 148.508 -167.651 175.279 -152.174C200.34 -137.685 212.136 -115.158 227.37 -94.3357C243.415 -72.4053 268.047 -52.0395 266.844 -27.0202C265.616 -1.45829 247.579 23.8775 220.923 39.7988C195.876 54.7592 158.284 45.2515 129.167 55.2132C94.1416 67.1964 73.8786 99.2819 35.7481 103.153Z" fill="#5DB9F2"/>
</g>
<path d="M1375 40C1375 45.5228 1370.52 50 1365 50C1359.48 50 1355 45.5228 1355 40C1355 34.4772 1359.48 30 1365 30C1370.52 30 1375 34.4772 1375 40Z" fill="white"/>
<path d="M1403 40.5C1403 44.6421 1399.64 48 1395.5 48C1391.36 48 1388 44.6421 1388 40.5C1388 36.3579 1391.36 33 1395.5 33C1399.64 33 1403 36.3579 1403 40.5Z" fill="white" fill-opacity="0.5"/>
<path d="M1431 40.5C1431 44.6421 1427.64 48 1423.5 48C1419.36 48 1416 44.6421 1416 40.5C1416 36.3579 1419.36 33 1423.5 33C1427.64 33 1431 36.3579 1431 40.5Z" fill="white" fill-opacity="0.5"/>
<path d="M1459 40.5C1459 44.6421 1455.64 48 1451.5 48C1447.36 48 1444 44.6421 1444 40.5C1444 36.3579 1447.36 33 1451.5 33C1455.64 33 1459 36.3579 1459 40.5Z" fill="white" fill-opacity="0.5"/>
<defs>
<linearGradient id="paint0_linear_741_648" x1="635.5" y1="37.1457" x2="2709.32" y2="1225.07" gradientUnits="userSpaceOnUse">
<stop stop-color="#4E91F7"/>
<stop offset="1" stop-color="#4DF6D8"/>
</linearGradient>
</defs>
</svg>
